<svg xmlns="http://www.w3.org/2000/svg" version="1.1" xmlns:xlink="http://www.w3.org/1999/xlink" width="512" height="512" x="0" y="0" viewBox="0 0 512 512" style="enable-background:new 0 0 512 512" xml:space="preserve" class=""><g><path fill="#FFBC85" fill-rule="evenodd" d="m110.117 196.988 30.026-24.472c-10.635-8.177-21.27-16.324-31.905-24.472H92.083c-5.953 0-10.808 4.854-10.808 10.806v10.69c0 13.695 15.317 27.621 28.842 27.448z" clip-rule="evenodd" opacity="1" data-original="#ffbc85"></path><path fill="#F9F7F7" fill-rule="evenodd" d="M411.595 386.171v81.252c0 6.985-2.226 8.458-6.215 8.726H26.715c-3.989-.268-6.215-1.741-6.215-8.726v-81.252c0-48.244 49.821-84.25 93.376-93.007l.082.062 103.63-3.492 100.167 3.75.464-.319c43.555 8.757 93.376 44.762 93.376 93.006z" clip-rule="evenodd" opacity="1" data-original="#f9f7f7" class=""></path><path fill="#1E9C99" fill-rule="evenodd" d="m261.404 436.244-26.732-89.104-19.507-17.812-19.478 17.812-26.761 89.104c-.231.78-.433.838-.058 1.502l20.258 38.398h52.076l20.287-38.398c.349-.664.146-.721-.085-1.502z" clip-rule="evenodd" opacity="1" data-original="#7bacdf" class=""></path><path fill="#CECECE" fill-rule="evenodd" d="m187.682 315.85 28.379-26.061h-.896c-14.161-20.427-37.829-33.371-62.278-26.668-14.103 10.719-33.87 26.321-39.014 30.048l.087.058 47.828 35.538c10.144 6.327 3.063 7.194 18.669-6.27z" clip-rule="evenodd" opacity="1" data-original="#cecece" class=""></path><path fill="#28777B" fill-rule="evenodd" d="m234.672 347.141 8.294-32.62v-15.192l-26.905-9.54L193 299.662l-5.318 16.188 8.005 31.291h19.478z" clip-rule="evenodd" opacity="1" data-original="#3987d0" class=""></path><path fill="#00706C" fill-rule="evenodd" d="m234.672 347.141 8.294-32.62-26.905-24.732-9.768 8.957 17.195 15.775-8.323 32.62z" clip-rule="evenodd" opacity="1" data-original="#0067b4" class=""></path><path fill="#CECECE" fill-rule="evenodd" d="m270.305 328.765 47.453-35.277.462-.318c-5.26-3.814-25.778-20.022-39.939-30.741-29.737-2.34-51.209 13.348-62.22 27.361l26.905 24.732 8.67 7.974c15.606 13.463 8.525 12.597 18.669 6.269z" clip-rule="evenodd" opacity="1" data-original="#cecece" class=""></path><path fill="#28777B" fill-rule="evenodd" d="m261.404 436.244-26.732-89.104h-19.507l26.761 89.104c.231.78.405.838.058 1.502l-20.287 38.398h19.507l20.287-38.398c.347-.664.144-.721-.087-1.502z" clip-rule="evenodd" opacity="1" data-original="#3987d0" class=""></path><path fill="#B5ADB6" fill-rule="evenodd" d="m189.329 314.319 16.964-15.573 9.768-8.957h-.896c-8.525 0-17.051-1.82-26.79-5.432-12.716-4.738-24.767-12.164-35.488-21.236-5.173 3.929-11.097 8.523-16.79 12.944 14.045 16.555 32.252 30.452 52.134 37.849.376.145.752.289 1.098.405zM242.157 313.77c20.114-7.57 38.523-21.814 52.597-38.687a1520.46 1520.46 0 0 0-16.473-12.655c-10.924 9.39-23.264 17.046-36.326 21.929-9.392 3.496-17.657 5.316-25.894 5.432z" clip-rule="evenodd" opacity="1" data-original="#b5adb6"></path><path fill="#E2E2E2" fill-rule="evenodd" d="M399.369 476.145h.202-.202zm-103.083-166.68c40.95 11.701 83.837 45.939 83.837 90.693v75.987H405.381c3.988-.26 6.213-1.734 6.213-8.725v-81.245c0-48.25-49.822-84.25-93.373-93.004l-.462.318z" clip-rule="evenodd" opacity="1" data-original="#e2e2e2"></path><path fill="#FFE5C1" fill-rule="evenodd" d="M278.281 262.429c20.981-18.058 36.673-42.443 41.933-65.441 1.243-5.461 1.907-10.864 1.907-16.064v-59.865h-19.68c-41.644 0-50.314-51.284-101.205-51.284h-33.812c-38.985 0-9.306 59.114-54.157 59.085h-5.028v52.064c0 5.201.636 10.603 1.878 16.064 5.317 23.316 21.357 48.048 42.771 66.134 10.722 9.072 22.773 16.497 35.488 21.236 9.739 3.612 18.264 5.432 26.79 5.432h.896c8.236-.116 16.501-1.936 25.894-5.432 13.061-4.883 25.401-12.539 36.325-21.929z" clip-rule="evenodd" opacity="1" data-original="#ffe5c1" class=""></path><path fill="#FBF8F8" fill-rule="evenodd" d="M182.856 225.071c0 38.369 64.619 38.369 64.619 0 0-3.554-2.919-6.472-6.473-6.472h-51.643c-3.584 0-6.503 2.918-6.503 6.472z" clip-rule="evenodd" opacity="1" data-original="#fbf8f8" class=""></path><path fill="#FFBC85" fill-rule="evenodd" d="M320.214 196.988c13.525.173 28.87-13.782 28.87-27.448v-10.69c0-5.952-4.884-10.806-10.837-10.806h-16.126l-12.947 19.936z" clip-rule="evenodd" opacity="1" data-original="#ffbc85"></path><path fill="#838383" fill-rule="evenodd" d="M113.267 148.044c44.852 0 15.172-59.114 54.157-59.114h33.812c50.892 0 59.561 51.284 101.205 51.284h19.68V89.421c0-53.913-59.735-89.277-109.933-89.422h-.665C188.924.057 168.348 7.28 156.094 23.2c-51.672 4.536-47.857 73.3-47.857 82.372v42.472z" clip-rule="evenodd" opacity="1" data-original="#838383" class=""></path><path fill="#595959" fill-rule="evenodd" d="M322.121 89.422C322.121 35.509 262.386.145 212.188 0h-.665c-22.541.058-43.089 7.252-55.342 23.114 10.462-5.114 22.83-7.512 35.835-7.57h.665c50.198.173 109.933 35.509 109.933 89.45v35.22h19.507v-15.573z" clip-rule="evenodd" opacity="1" data-original="#595959" class=""></path><path fill="#FED1A3" fill-rule="evenodd" d="M302.441 140.214c-41.644 0-50.314-51.284-101.205-51.284h-33.812c-15.895 0-20.374 9.794-23.148 21.409h53.059c50.892 0 57.625 47.961 99.269 48.192l6.011.058c0 15.168.491 20.918-4.133 35.653-5.982 19.156-15.808 39.293-32.28 53.48-10.924 9.39-23.264 17.046-36.326 21.929-8.814 3.294-17.311 5.374-26.79 5.432-17.657 0-55.573-20.051-69.271-31.521 5.664 7.021 12.08 13.666 19.074 19.56 10.722 9.072 22.773 16.497 35.488 21.236 9.739 3.612 18.264 5.432 26.79 5.432h.896c8.236-.116 16.501-1.936 25.894-5.432 13.062-4.883 25.402-12.539 36.326-21.929 20.981-18.058 36.673-42.443 41.933-65.441 1.243-5.461 1.907-10.864 1.907-16.064V140.215h-19.682z" clip-rule="evenodd" opacity="1" data-original="#fed1a3" class=""></path><path fill="#E2E2E2" fill-rule="evenodd" d="M183.261 230.098h63.81c.26-1.589.405-3.265.405-5.027 0-3.554-2.919-6.472-6.473-6.472H189.36c-3.583 0-6.502 2.918-6.502 6.472a30.754 30.754 0 0 0 .403 5.027z" clip-rule="evenodd" opacity="1" data-original="#e2e2e2"></path><path fill="#E2E2E2" d="M96.025 418.767v57.382h-15.46v-57.382c0-4.265 3.463-7.727 7.73-7.727s7.73 3.462 7.73 7.727z" opacity="1" data-original="#e2e2e2"></path><path d="M336.022 483.871a7.728 7.728 0 0 1-7.73-7.727v-57.38c0-4.267 3.461-7.727 7.73-7.727s7.73 3.459 7.73 7.727v57.38a7.728 7.728 0 0 1-7.73 7.727z" fill="#000000" opacity="1" data-original="#000000" class=""></path><path fill="#838383" d="M182.567 179.318a7.71 7.71 0 0 1-5.467-2.264c-1.237-1.237-2.878-1.919-4.619-1.919s-3.381.681-4.619 1.919a7.733 7.733 0 0 1-10.932.002 7.725 7.725 0 0 1-.002-10.927c4.158-4.157 9.681-6.446 15.552-6.446 5.872 0 11.395 2.289 15.553 6.446a7.725 7.725 0 0 1-.002 10.927 7.703 7.703 0 0 1-5.464 2.262zM267.965 179.318a7.707 7.707 0 0 1-5.466-2.264 6.515 6.515 0 0 0-4.634-1.919 6.509 6.509 0 0 0-4.634 1.919 7.731 7.731 0 0 1-10.931.001 7.725 7.725 0 0 1-.001-10.927c4.158-4.157 9.686-6.446 15.567-6.446s11.409 2.289 15.567 6.446a7.725 7.725 0 0 1-5.468 13.19z" opacity="1" data-original="#838383" class=""></path><path fill="#838383" fill-rule="evenodd" d="m335.386 337.722-18.207 18.173c-3.757 3.785-3.757 9.939 0 13.695l7.427 7.425a79.954 79.954 0 0 0-6.329 15.688h-10.664c-5.317 0-9.681 4.334-9.681 9.679v25.714c0 5.316 4.364 9.679 9.681 9.679h11.068a80.322 80.322 0 0 0 6.387 15.226l-7.889 7.859c-3.757 3.785-3.757 9.939 0 13.695l18.207 18.202c3.757 3.756 9.912 3.756 13.669 0l7.89-7.888a80.39 80.39 0 0 0 15.23 6.385v11.066c0 5.316 4.364 9.679 9.681 9.679h25.72c5.317 0 9.681-4.363 9.681-9.679v-10.66a79.958 79.958 0 0 0 15.692-6.327l7.427 7.425c3.757 3.756 9.912 3.756 13.669 0l18.207-18.202c3.757-3.756 3.757-9.91 0-13.666l-7.022-7.021a78.686 78.686 0 0 0 6.878-16.093h9.71c5.317 0 9.681-4.363 9.681-9.679v-25.714c0-5.345-4.364-9.679-9.681-9.679h-9.306a78.708 78.708 0 0 0-6.791-16.584l6.531-6.53c3.757-3.756 3.757-9.91 0-13.695l-18.207-18.173c-3.757-3.756-9.912-3.756-13.669 0l-6.531 6.53a78.813 78.813 0 0 0-16.588-6.79v-9.303c0-5.345-4.364-9.679-9.681-9.679h-25.72c-5.317 0-9.681 4.334-9.681 9.679v9.708a78.792 78.792 0 0 0-16.097 6.876l-7.023-7.021c-3.756-3.756-9.912-3.756-13.669 0z" clip-rule="evenodd" opacity="1" data-original="#838383" class=""></path><path fill="#595959" fill-rule="evenodd" d="M409.022 435.031c-1.387 14.822-4.653 28.719-9.479 41.114-4.508 11.615-10.317 21.9-17.166 30.424a93.885 93.885 0 0 1-4.104 4.738 9.778 9.778 0 0 0 3.584.693h25.72c3.815 0 7.109-2.225 8.699-5.432.636-1.3.983-2.745.983-4.247V491.66a79.958 79.958 0 0 0 15.692-6.327l7.427 7.425c3.757 3.756 9.912 3.756 13.669 0l18.207-18.202c3.757-3.756 3.757-9.91 0-13.666l-7.022-7.021a78.686 78.686 0 0 0 6.878-16.093h9.71c5.317 0 9.681-4.363 9.681-9.679v-25.714c0-5.345-4.364-9.679-9.681-9.679h-9.306a78.708 78.708 0 0 0-6.791-16.584l6.531-6.53c3.757-3.756 3.757-9.91 0-13.695l-18.207-18.173c-3.757-3.756-9.912-3.756-13.669 0l-6.531 6.53a78.813 78.813 0 0 0-16.588-6.79v-9.303c0-5.345-4.364-9.679-9.681-9.679h-25.72a9.6 9.6 0 0 0-5.838 1.965 9.353 9.353 0 0 0-2.139 2.254c17.079 15.833 29.651 41.663 34.101 72.028 1.3.838 2.514 1.82 3.612 2.86 4.653 4.449 7.543 10.719 7.543 17.653s-2.89 13.175-7.543 17.624a23.39 23.39 0 0 1-2.572 2.167z" clip-rule="evenodd" opacity="1" data-original="#595959" class=""></path><path fill="#F9F7F7" fill-rule="evenodd" d="M394.716 390.826c-13.496 0-24.42 10.921-24.42 24.414 0 13.464 10.924 24.414 24.42 24.414s24.42-10.95 24.42-24.414c0-13.493-10.924-24.414-24.42-24.414z" clip-rule="evenodd" opacity="1" data-original="#f9f7f7" class=""></path><path fill="#E2E2E2" fill-rule="evenodd" d="M397.375 415.24c0 9.563-5.52 17.855-13.554 21.843a24.298 24.298 0 0 0 10.895 2.571 24.442 24.442 0 0 0 14.305-4.623 23.206 23.206 0 0 0 2.572-2.167c4.653-4.449 7.543-10.69 7.543-17.624s-2.89-13.204-7.543-17.653a24.987 24.987 0 0 0-3.612-2.86 24.467 24.467 0 0 0-13.265-3.9c-3.901 0-7.601.925-10.895 2.543 8.034 4.014 13.554 12.306 13.554 21.87z" clip-rule="evenodd" opacity="1" data-original="#e2e2e2"></path></g></svg>