<svg xmlns="http://www.w3.org/2000/svg" version="1.1" xmlns:xlink="http://www.w3.org/1999/xlink" width="512" height="512" x="0" y="0" viewBox="0 0 398.702 398.702" style="enable-background:new 0 0 512 512" xml:space="preserve" class=""><g><g fill="#2F4859"><path d="m334.813 265.351 29.307-.175c5.586-.033 10.142 4.468 10.176 10.055l.347 58.193c.033 5.586-4.468 10.142-10.055 10.176l-29.307.175c-5.586.033-10.142-4.468-10.176-10.055l-.347-58.193c-.034-5.587 4.468-10.142 10.055-10.176zM36.581 267.126l29.307-.175c5.586-.033 10.142 4.468 10.176 10.055l.346 58.194c.033 5.586-4.468 10.142-10.055 10.176l-29.307.175c-5.586.033-10.142-4.468-10.176-10.055l-.347-58.193c-.033-5.587 4.469-10.143 10.056-10.177zM368.127 123.618a4.729 4.729 0 0 0-4.284 4.758 9.562 9.562 0 0 1-7.162 10.467l-7.291.045 3.744 10.927s46.941-.282 45.537-15.7c-1.088-11.966-21.462-11.368-30.544-10.497zM30.575 123.618a4.729 4.729 0 0 1 4.284 4.758 9.562 9.562 0 0 0 7.162 10.467l7.291.045-3.744 10.927s-46.941-.282-45.537-15.7c1.088-11.966 21.462-11.368 30.544-10.497z" fill="#808384" opacity="1" data-original="#2f4859" class=""></path></g><path fill="#000000" d="M388.209 215.176a80.758 80.758 0 0 0-9.725-32.696l-19.786-36.287s-35.134-79.192-49.771-85.494c-14.152-6.094-104.483-7.464-110.468-7.548h-.331c-5.985.158-96.292 2.607-110.369 8.869-14.562 6.475-48.767 86.067-48.767 86.067l-19.335 36.524a80.84 80.84 0 0 0-9.334 32.805 236.434 236.434 0 0 0 8.087 75.225 26.365 26.365 0 0 0 25.677 19.395l155.579-.9h.331l155.579-.925a26.368 26.368 0 0 0 25.439-19.702 236.217 236.217 0 0 0 7.194-75.333z" opacity="1" data-original="#fe7058" class=""></path><path fill="#808384" d="m123.683 262.235 151.609-.905a4.912 4.912 0 0 1 4.941 4.882l.154 25.815a4.912 4.912 0 0 1-4.882 4.941l-151.609.905a4.912 4.912 0 0 1-4.941-4.882l-.154-25.815a4.912 4.912 0 0 1 4.882-4.941z" opacity="1" data-original="#3a556a" class=""></path><path fill="#808384" d="M311.768 72.645a9.893 9.893 0 0 0-8.79-5.763l-103.667-2.127h-.326L95.348 68.119a9.894 9.894 0 0 0-8.716 5.866l-29.738 66.89 142.53-.851h.326l142.55-.851z" opacity="1" data-original="#2f4859" class=""></path><path fill="#EBF0F3" d="M345.512 256.968c-9.993.058-18.047 8.205-17.989 18.198s8.205 18.047 18.198 17.989 18.047-8.205 17.989-18.198v-.009c-.063-9.989-8.209-18.038-18.198-17.98zM54.971 258.704c-9.993.06-18.045 8.21-17.984 18.203.06 9.993 8.21 18.045 18.203 17.984 9.993-.06 18.044-8.21 17.984-18.202-.061-9.993-8.21-18.045-18.203-17.985z" opacity="1" data-original="#ebf0f3" class=""></path><path fill="#808384" d="M131.61 216.343h131.96v16.472H131.61z" opacity="1" data-original="#3a556a" class=""></path><path fill="#808384" d="M370.902 190.444a7.023 7.023 0 0 0-8.661-6.029l-60.346 14.755a7.027 7.027 0 0 0-4.338 3.19l-11.955 19.786a7.014 7.014 0 0 0 6.004 10.64h58.961a7.064 7.064 0 0 0 3.888-1.133c13.909-9.211 18.262-23.56 16.447-41.209z" opacity="1" data-original="#e1e6e9" class=""></path><path fill="#BDBEC1" d="M342.302 196.043c-7.296.298-12.969 6.455-12.67 13.751.298 7.296 6.455 12.969 13.751 12.67 7.295-.298 12.968-6.453 12.671-13.749-.301-7.295-6.456-12.968-13.752-12.672zM314.29 208.661c-5.549.223-9.867 4.903-9.644 10.452s4.903 9.867 10.452 9.644 9.867-4.903 9.644-10.452v-.008c-.227-5.546-4.905-9.859-10.452-9.636z" opacity="1" data-original="#bdbec1" class=""></path><path fill="#808384" d="M27.8 190.444a7.023 7.023 0 0 1 8.661-6.029l60.346 14.755a7.027 7.027 0 0 1 4.338 3.19l11.955 19.786a7.014 7.014 0 0 1-6.004 10.64H48.135a7.064 7.064 0 0 1-3.888-1.133c-13.91-9.211-18.262-23.56-16.447-41.209z" opacity="1" data-original="#e1e6e9" class=""></path><path fill="#BDBEC1" d="M56.4 196.043c7.296.298 12.969 6.455 12.67 13.751-.298 7.296-6.455 12.969-13.751 12.67-7.295-.298-12.968-6.453-12.671-13.749.301-7.295 6.456-12.968 13.752-12.672zM84.412 208.661c5.549.223 9.867 4.903 9.644 10.452s-4.903 9.867-10.452 9.644-9.867-4.903-9.644-10.452v-.008c.227-5.546 4.905-9.859 10.452-9.636z" opacity="1" data-original="#bdbec1" class=""></path></g></svg>